<?xml version="1.0" encoding="UTF-8" standalone="no"?>
<!DOCTYPE svg PUBLIC "-//W3C//DTD SVG 1.1//EN" "http://www.w3.org/Graphics/SVG/1.1/DTD/svg11.dtd">
<svg width="100%" height="100%" viewBox="0 0 300 90" version="1.1" xmlns="http://www.w3.org/2000/svg" xmlns:xlink="http://www.w3.org/1999/xlink" xml:space="preserve" style="fill-rule:evenodd;clip-rule:evenodd;stroke-linejoin:round;stroke-miterlimit:1.41421;">
    <g id="Layer-1" transform="matrix(0.537225,0,0,0.537225,-2.2845,-0.685876)">
        <path d="M137.532,75.517C110.538,59.486 66.012,58.012 40.243,65.833C36.104,67.089 31.728,64.753 30.475,60.615C29.221,56.474 31.554,52.101 35.695,50.843C65.277,41.864 114.451,43.598 145.527,62.045C149.25,64.255 150.47,69.062 148.264,72.778C146.056,76.5 141.245,77.727 137.532,75.517M136.648,99.261C134.754,102.334 130.736,103.298 127.667,101.411C105.163,87.578 70.845,83.57 44.22,91.652C40.768,92.695 37.121,90.749 36.072,87.302C35.032,83.85 36.979,80.21 40.426,79.16C70.841,69.93 108.652,74.4 134.5,90.285C137.569,92.175 138.535,96.195 136.648,99.261M126.401,122.064C124.896,124.532 121.683,125.305 119.224,123.801C99.559,111.782 74.807,109.068 45.657,115.726C42.848,116.37 40.048,114.61 39.408,111.802C38.764,108.993 40.518,106.193 43.333,105.552C75.233,98.26 102.596,101.398 124.669,114.886C127.13,116.389 127.905,119.604 126.401,122.064M87.995,1.277C41.746,1.277 4.252,38.77 4.252,85.019C4.252,131.273 41.746,168.764 87.995,168.764C134.246,168.764 171.739,131.273 171.739,85.019C171.739,38.77 134.246,1.277 87.995,1.277" style="fill:rgb(30,215,96);fill-rule:nonzero;"/>
        <path d="M232.089,78.586C217.63,75.138 215.056,72.718 215.056,67.633C215.056,62.829 219.579,59.597 226.305,59.597C232.825,59.597 239.289,62.052 246.068,67.106C246.273,67.259 246.53,67.32 246.783,67.28C247.036,67.242 247.26,67.104 247.408,66.894L254.468,56.942C254.758,56.532 254.679,55.967 254.288,55.654C246.221,49.181 237.137,46.034 226.519,46.034C210.907,46.034 200.002,55.402 200.002,68.808C200.002,83.183 209.409,88.272 225.665,92.202C239.501,95.389 241.836,98.058 241.836,102.832C241.836,108.121 237.115,111.409 229.516,111.409C221.076,111.409 214.192,108.566 206.491,101.897C206.3,101.733 206.038,101.657 205.796,101.671C205.541,101.692 205.308,101.81 205.146,102.005L197.23,111.426C196.898,111.817 196.94,112.401 197.324,112.739C206.284,120.738 217.304,124.963 229.195,124.963C246.019,124.963 256.889,115.771 256.889,101.544C256.889,89.52 249.706,82.87 232.089,78.586" style="fill:rgb(30,215,96);fill-rule:nonzero;"/>
        <path d="M307.162,94.701C307.162,104.854 300.908,111.939 291.953,111.939C283.1,111.939 276.422,104.532 276.422,94.701C276.422,84.871 283.1,77.463 291.953,77.463C300.764,77.463 307.162,84.711 307.162,94.701M294.95,64.326C287.658,64.326 281.677,67.198 276.745,73.083L276.745,66.459C276.745,65.936 276.321,65.51 275.798,65.51L262.852,65.51C262.329,65.51 261.906,65.936 261.906,66.459L261.906,140.061C261.906,140.584 262.329,141.01 262.852,141.01L275.798,141.01C276.321,141.01 276.745,140.584 276.745,140.061L276.745,116.828C281.678,122.365 287.66,125.069 294.95,125.069C308.499,125.069 322.215,114.639 322.215,94.701C322.215,74.759 308.499,64.326 294.95,64.326" style="fill:rgb(30,215,96);fill-rule:nonzero;"/>
        <path d="M357.373,112.045C348.092,112.045 341.095,104.588 341.095,94.701C341.095,84.772 347.85,77.567 357.159,77.567C366.499,77.567 373.544,85.024 373.544,94.918C373.544,104.845 366.743,112.045 357.373,112.045M357.373,64.326C339.924,64.326 326.254,77.762 326.254,94.918C326.254,111.887 339.83,125.182 357.159,125.182C374.67,125.182 388.382,111.79 388.382,94.701C388.382,77.668 374.764,64.326 357.373,64.326" style="fill:rgb(30,215,96);fill-rule:nonzero;"/>
        <path d="M425.644,65.51L411.397,65.51L411.397,50.944C411.397,50.421 410.975,49.995 410.452,49.995L397.507,49.995C396.983,49.995 396.557,50.421 396.557,50.944L396.557,65.51L390.332,65.51C389.811,65.51 389.389,65.936 389.389,66.459L389.389,77.585C389.389,78.108 389.811,78.534 390.332,78.534L396.557,78.534L396.557,107.325C396.557,118.96 402.348,124.86 413.769,124.86C418.413,124.86 422.266,123.901 425.898,121.842C426.192,121.677 426.376,121.359 426.376,121.021L426.376,110.425C426.376,110.098 426.206,109.789 425.926,109.618C425.644,109.441 425.293,109.432 425.004,109.575C422.51,110.83 420.099,111.409 417.404,111.409C413.251,111.409 411.397,109.523 411.397,105.296L411.397,78.534L425.644,78.534C426.167,78.534 426.588,78.108 426.588,77.585L426.588,66.459C426.588,65.936 426.167,65.51 425.644,65.51" style="fill:rgb(30,215,96);fill-rule:nonzero;"/>
        <path d="M475.281,65.567L475.281,63.778C475.281,58.515 477.299,56.168 481.825,56.168C484.524,56.168 486.692,56.704 489.12,57.514C489.419,57.608 489.731,57.561 489.974,57.382C490.224,57.203 490.365,56.916 490.365,56.613L490.365,45.702C490.365,45.286 490.097,44.916 489.696,44.794C487.131,44.031 483.849,43.247 478.935,43.247C466.976,43.247 460.656,49.982 460.656,62.714L460.656,65.454L454.437,65.454C453.914,65.454 453.486,65.88 453.486,66.402L453.486,77.586C453.486,78.108 453.914,78.535 454.437,78.535L460.656,78.535L460.656,122.944C460.656,123.467 461.078,123.893 461.6,123.893L474.546,123.893C475.069,123.893 475.495,123.467 475.495,122.944L475.495,78.535L487.583,78.535L506.1,122.932C503.998,127.597 501.931,128.525 499.109,128.525C496.828,128.525 494.426,127.844 491.97,126.501C491.739,126.374 491.466,126.352 491.216,126.43C490.969,126.517 490.761,126.701 490.656,126.941L486.268,136.568C486.059,137.023 486.237,137.557 486.675,137.793C491.256,140.274 495.392,141.333 500.502,141.333C510.062,141.333 515.346,136.88 520.005,124.9L542.466,66.859C542.578,66.568 542.545,66.238 542.366,65.979C542.188,65.722 541.901,65.567 541.587,65.567L528.109,65.567C527.706,65.567 527.344,65.824 527.212,66.203L513.405,105.64L498.282,66.177C498.144,65.81 497.791,65.567 497.398,65.567L475.281,65.567Z" style="fill:rgb(30,215,96);fill-rule:nonzero;"/>
        <path d="M446.505,65.51L433.558,65.51C433.036,65.51 432.61,65.936 432.61,66.459L432.61,122.943C432.61,123.466 433.036,123.892 433.558,123.892L446.505,123.892C447.027,123.892 447.454,123.466 447.454,122.943L447.454,66.459C447.454,65.936 447.027,65.51 446.505,65.51" style="fill:rgb(30,215,96);fill-rule:nonzero;"/>
        <path d="M440.097,39.791C434.968,39.791 430.806,43.943 430.806,49.072C430.806,54.204 434.968,58.361 440.097,58.361C445.224,58.361 449.382,54.204 449.382,49.072C449.382,43.943 445.224,39.791 440.097,39.791" style="fill:rgb(30,215,96);fill-rule:nonzero;"/>
        <path d="M554.049,71.129L551.677,71.129L551.677,74.154L554.049,74.154C555.233,74.154 555.94,73.575 555.94,72.641C555.94,71.656 555.233,71.129 554.049,71.129M555.586,75.444L558.164,79.052L555.991,79.052L553.671,75.743L551.677,75.743L551.677,79.052L549.858,79.052L549.858,69.489L554.122,69.489C556.344,69.489 557.806,70.626 557.806,72.539C557.806,74.107 556.9,75.065 555.586,75.444M553.566,66.306C548.9,66.306 545.368,70.016 545.368,74.559C545.368,79.099 548.874,82.76 553.519,82.76C558.184,82.76 561.72,79.052 561.72,74.507C561.72,69.966 558.211,66.306 553.566,66.306M553.519,83.671C548.395,83.671 544.408,79.556 544.408,74.559C544.408,69.562 548.447,65.4 553.566,65.4C558.69,65.4 562.677,69.514 562.677,74.507C562.677,79.505 558.641,83.671 553.519,83.671" style="fill:rgb(30,215,96);fill-rule:nonzero;"/>
    </g>
</svg>
